<svg xmlns="http://www.w3.org/2000/svg" xml:space="preserve" width="307.01334" height="307.01334" viewBox="0 0 307.01334 307.01334"><defs><linearGradient id="b" x1="0" x2="1" y1="0" y2="0" gradientTransform="scale(1120.123 -1120.123) rotate(-47.589 -.403 -1.115)" gradientUnits="userSpaceOnUse" spreadMethod="pad"><stop offset="0" style="stop-opacity:1;stop-color:#50b6ea"/><stop offset="0.102151" style="stop-opacity:1;stop-color:#50b6ea"/><stop offset="0.887097" style="stop-opacity:1;stop-color:#212752"/><stop offset="1" style="stop-opacity:1;stop-color:#212752"/></linearGradient><clipPath id="a" clipPathUnits="userSpaceOnUse"><path d="M1542.48 1040.26h-5.56c-8.61 0-15.6 6.97-15.6 15.59 0 8.62 6.99 15.62 15.6 15.62h5.56c8.62 0 15.62-7 15.62-15.62s-7-15.59-15.62-15.59zm-36.78 53.8H899.059c-8.625 0-15.618 7-15.618 15.62 0 8.61 6.993 15.62 15.618 15.62H1505.7c8.63 0 15.62-7.01 15.62-15.62 0-8.62-6.99-15.62-15.62-15.62zm-84.08-53.8H694.254c-8.617 0-15.606 6.97-15.606 15.59 0 8.62 6.989 15.62 15.606 15.62h727.366c8.63 0 15.62-7 15.62-15.62s-6.99-15.59-15.62-15.59zm-168.03-145.881c0-8.629-6.98-15.617-15.61-15.617h-44.48c-8.63 0-15.62 6.988-15.62 15.617 0 8.621 6.99 15.609 15.62 15.609h44.48c8.63 0 15.61-6.988 15.61-15.609zm-32.67-69.098h-19.14c-8.43 0-15.28 6.828-15.28 15.27 0 8.437 6.85 15.269 15.28 15.269h19.14c8.44 0 15.28-6.832 15.28-15.269 0-8.442-6.84-15.27-15.28-15.27zm-38.27-54.172h-19.14c-8.43 0-15.28 6.84-15.28 15.282 0 8.449 6.85 15.289 15.28 15.289h19.14c8.44 0 15.29-6.84 15.29-15.289 0-8.442-6.85-15.282-15.29-15.282zm-.87-54.371h-6.38c-8.92 0-16.15 7.242-16.15 16.16 0 8.93 7.23 16.161 16.15 16.161h6.38c8.92 0 16.16-7.231 16.16-16.161 0-8.918-7.24-16.16-16.16-16.16zm-57.4 231.383c0 8.617 6.98 15.609 15.61 15.609h42.32c8.63 0 15.63-6.992 15.63-15.609 0-8.633-7-15.621-15.63-15.621h-42.32c-8.63 0-15.61 6.988-15.61 15.621zm-43.16 53.899c0 8.63 6.99 15.62 15.61 15.62h43.08c8.62 0 15.61-6.99 15.61-15.62 0-8.61-6.99-15.61-15.61-15.61h-43.08c-8.62 0-15.61 7-15.61 15.61zm-22.49-69.52h-5.89c-8.62 0-15.6 6.988-15.6 15.621 0 8.617 6.98 15.609 15.6 15.609h5.89c8.62 0 15.62-6.992 15.62-15.609 0-8.633-7-15.621-15.62-15.621zm0-53.738h-5.06c-8.62 0-15.61 6.988-15.61 15.617 0 8.621 6.99 15.609 15.61 15.609h5.06c8.62 0 15.62-6.988 15.62-15.609 0-8.629-7-15.617-15.62-15.617zM940.773 986.41H695.496c-8.625 0-15.613 7-15.613 15.61 0 8.63 6.988 15.62 15.613 15.62h245.277c8.622 0 15.614-6.99 15.614-15.62 0-8.61-6.992-15.61-15.614-15.61zm-76.703-53.738H696.16c-8.621 0-15.609 6.988-15.609 15.609 0 8.629 6.988 15.617 15.609 15.617h167.91c8.625 0 15.614-6.988 15.614-15.617 0-8.621-6.989-15.609-15.614-15.609zm-1.242-53.91H740.473c-8.618 0-15.606 6.988-15.606 15.617 0 8.621 6.988 15.609 15.606 15.609h122.355c8.621 0 15.61-6.988 15.61-15.609 0-8.629-6.989-15.617-15.61-15.617zm-116.883-53.481h-5.797c-8.437 0-15.281 6.828-15.281 15.27 0 8.437 6.844 15.269 15.281 15.269h5.797c8.446 0 15.285-6.832 15.285-15.269 0-8.442-6.839-15.27-15.285-15.27zM734.098 1125.3h45.156c8.621 0 15.605-7.01 15.605-15.62 0-8.62-6.984-15.62-15.605-15.62h-45.156c-8.618 0-15.618 7-15.618 15.62 0 8.61 7 15.62 15.618 15.62zm53.011 269.12h22.786c8.625 0 15.613-6.99 15.613-15.62 0-8.61-6.988-15.6-15.613-15.6h-22.786c-8.617 0-15.605 6.99-15.605 15.6 0 8.63 6.988 15.62 15.605 15.62zm47.555 53.83h8.035c8.621 0 15.617-6.98 15.617-15.62 0-8.62-6.996-15.6-15.617-15.6h-8.035c-8.625 0-15.617 6.98-15.617 15.6 0 8.64 6.992 15.62 15.617 15.62zm38.277-53.83H974.73c8.715 0 15.79-6.99 15.79-15.62 0-8.61-7.075-15.6-15.79-15.6H872.941c-8.722 0-15.789 6.99-15.789 15.6 0 8.63 7.067 15.62 15.789 15.62zm82.036 38.21c0-8.62-6.989-15.6-15.614-15.6h-28.91c-8.617 0-15.613 6.98-15.613 15.6 0 8.64 6.996 15.62 15.613 15.62h28.91c8.625 0 15.614-6.98 15.614-15.62zm-49.493 69.44h57.739c8.617 0 15.617-6.98 15.617-15.59 0-8.64-7-15.62-15.617-15.62h-57.739c-8.621 0-15.617 6.98-15.617 15.62 0 8.61 6.996 15.59 15.617 15.59zm14.168 53.84h18.141c8.617 0 15.613-6.99 15.613-15.61s-6.996-15.62-15.613-15.62h-18.141c-8.632 0-15.613 7-15.613 15.62s6.981 15.61 15.613 15.61zm39.016-246.53H821.91c-8.629 0-15.617 6.98-15.617 15.6 0 8.64 6.988 15.62 15.617 15.62h136.758c8.617 0 15.613-6.98 15.613-15.62 0-8.62-6.996-15.6-15.613-15.6zm341.352-345.65h84.08c8.62 0 15.62-6.992 15.62-15.609 0-8.633-7-15.621-15.62-15.621h-84.08c-8.62 0-15.61 6.988-15.61 15.621 0 8.617 6.99 15.609 15.61 15.609zm85.41-84.968h-47.47c-8.62 0-15.61 6.988-15.61 15.617 0 8.621 6.99 15.609 15.61 15.609h47.47c8.62 0 15.61-6.988 15.61-15.609 0-8.629-6.99-15.617-15.61-15.617zm37.15-38.211c0-8.442-6.85-15.27-15.28-15.27h-8.86c-8.45 0-15.3 6.828-15.3 15.27 0 8.437 6.85 15.269 15.3 15.269h8.86c8.43 0 15.28-6.832 15.28-15.269zm120.14 15.269h10.86c8.45 0 15.29-6.832 15.29-15.269 0-8.442-6.84-15.27-15.29-15.27h-10.86c-8.43 0-15.28 6.828-15.28 15.27 0 8.437 6.85 15.269 15.28 15.269zm-447.63 538.6h7.8c8.61 0 15.6-6.99 15.6-15.62 0-8.61-6.99-15.6-15.6-15.6h-7.8c-8.63 0-15.61 6.99-15.61 15.6 0 8.63 6.98 15.62 15.61 15.62zm6.79 107.65h160.54c8.62 0 15.61-6.98 15.61-15.59 0-8.64-6.99-15.62-15.61-15.62h-160.54c-8.61 0-15.61 6.98-15.61 15.62 0 8.61 7 15.59 15.61 15.59zm0 53.84h117.54c8.63 0 15.63-6.99 15.63-15.61s-7-15.62-15.63-15.62h-117.54c-8.61 0-15.61 7-15.61 15.62s7 15.61 15.61 15.61zm76.88 53.81h82.74c8.64 0 15.62-6.97 15.62-15.59 0-8.63-6.98-15.62-15.62-15.62h-82.74c-8.63 0-15.62 6.99-15.62 15.62 0 8.62 6.99 15.59 15.62 15.59zm0 53.83h82.74c8.64 0 15.62-6.98 15.62-15.6 0-8.64-6.98-15.61-15.62-15.61h-82.74c-8.63 0-15.62 6.97-15.62 15.61 0 8.62 6.99 15.6 15.62 15.6zm43.16-246.52h-41.34c-8.63 0-15.61 6.98-15.61 15.6 0 8.64 6.98 15.62 15.61 15.62h41.34c8.62 0 15.61-6.98 15.61-15.62 0-8.62-6.99-15.6-15.61-15.6zm-1.5-53.83h-38.85c-8.61 0-15.61 6.99-15.61 15.6 0 8.63 7 15.62 15.61 15.62h38.85c8.63 0 15.61-6.99 15.61-15.62 0-8.61-6.98-15.6-15.61-15.6zm424.36-307.35c0 8.62 6.99 15.62 15.61 15.62h51.42c1.05 7.49 1.97 15.03 2.73 22.59h-134.83c-8.62 0-15.61 7-15.61 15.62 0 8.61 6.99 15.62 15.61 15.62h137.09c.34 7.5.53 15.03.57 22.58H899.059c-8.625 0-15.618 7.01-15.618 15.62 0 8.63 6.993 15.62 15.618 15.62H1716.72c-.37 7.57-.88 15.11-1.53 22.6H857.305c-8.617 0-15.606 6.99-15.606 15.61s6.989 15.62 15.606 15.62h854.235c-1.09 7.58-2.34 15.12-3.74 22.61h-689.47c-8.62 0-15.6 6.98-15.6 15.59 0 8.64 6.98 15.62 15.6 15.62h682.74c-1.86 7.61-3.88 15.13-6.05 22.61H1057.65c-8.63 0-15.62 6.98-15.62 15.6 0 8.64 6.99 15.62 15.62 15.62h627.31a541.77 541.77 0 0 1-8.57 22.6H1340.94c-8.63 0-15.62 6.99-15.62 15.6 0 8.63 6.99 15.62 15.62 15.62H1662.66c-3.64 7.64-7.43 15.18-11.39 22.61H1340.94c-8.63 0-15.62 6.98-15.62 15.6 0 8.64 6.99 15.62 15.62 15.62h292.39c-4.73 7.66-9.63 15.19-14.7 22.61H1419.8c-8.62 0-15.61 7-15.61 15.62 0 8.61 6.99 15.59 15.61 15.59h175.83a551.202 551.202 0 0 1-18.83 22.61h-278.27c-8.63 0-15.61 7-15.61 15.62s6.98 15.61 15.61 15.61h248.69c-7.93 7.77-16.11 15.3-24.5 22.6h-181.78c-8.63 0-15.62 6.99-15.62 15.62 0 8.62 6.99 15.59 15.62 15.59h142.54a566.916 566.916 0 0 1-33.61 22.62h-108.93c-8.63 0-15.62 6.99-15.62 15.61s6.99 15.6 15.62 15.6h51.58a557.109 557.109 0 0 1-55.35 22.61H1229.7c-8.64 0-15.62 7-15.62 15.62 0 4.59 1.99 8.7 5.15 11.57a574.554 574.554 0 0 1-67.92 4.04c-124.1 0-238.865-39.93-332.158-107.67h16.918c8.625 0 15.614-6.97 15.614-15.59 0-8.63-6.989-15.62-15.614-15.62h-56.172c-119.277-103.79-194.671-256.7-194.671-427.22 0-312.622 253.441-566.079 566.083-566.079 166.32 0 315.88 71.73 419.45 185.937-8.23.43-14.77 7.223-14.77 15.571 0 8.621 6.98 15.621 15.6 15.621h25.48c18.81 24 35.71 49.539 50.51 76.422h-146.23c-8.62 0-15.62 6.988-15.62 15.617 0 8.621 7 15.609 15.62 15.609h162.18a575.829 575.829 0 0 1 10.02 22.512H1462.26c-8.63 0-15.62 6.988-15.62 15.621 0 8.617 6.99 15.609 15.62 15.609h223.32a582 582 0 0 1 7.42 22.68H1258.82c-8.63 0-15.63 7-15.63 15.61 0 8.63 7 15.62 15.63 15.62H1701.52c1.81 7.47 3.46 15.01 4.97 22.62h-46.1c-8.62 0-15.61 6.97-15.61 15.59z"/></clipPath></defs><path d="M1151.3 49.71c-148.69 0-292.972 29.118-428.812 86.579-65.281 27.609-128.246 61.789-187.136 101.57-58.321 39.403-113.164 84.653-163.004 134.512-49.832 49.82-95.082 104.66-134.485 162.969-39.789 58.898-73.961 121.871-101.57 187.16-57.461 135.828-86.59 280.1-86.59 428.81 0 148.69 29.129 292.96 86.59 428.8 27.609 65.28 61.781 128.26 101.57 187.15 39.403 58.31 84.653 113.15 134.485 162.98 49.84 49.85 104.683 95.1 163.004 134.5 58.89 39.78 121.855 73.96 187.136 101.56 135.84 57.48 280.122 86.59 428.812 86.59s292.97-29.11 428.81-86.59c65.28-27.6 128.25-61.78 187.14-101.56 58.32-39.4 113.16-84.65 162.99-134.5 49.85-49.83 95.09-104.67 134.5-162.98 39.78-58.89 73.95-121.87 101.58-187.15 57.45-135.84 86.58-280.11 86.58-428.8 0-148.71-29.13-292.982-86.58-428.81-27.63-65.289-61.8-128.262-101.58-187.16-39.41-58.309-84.65-113.149-134.5-162.969-49.83-49.859-104.67-95.109-162.99-134.512-58.89-39.781-121.86-73.961-187.14-101.57-135.84-57.46-280.12-86.578-428.81-86.578" style="fill:#be2024;fill-opacity:1;fill-rule:nonzero;stroke:none" transform="matrix(.13333 0 0 -.13333 0 307.013)"/><path d="M1718.67 1391.02a616.02 616.02 0 0 1-56.79 104.6c-22.01 32.61-47.3 63.24-75.16 91.11a618.426 618.426 0 0 1-91.1 75.16 616.753 616.753 0 0 1-104.61 56.79c-75.95 32.11-156.61 48.41-239.71 48.41-83.11 0-163.757-16.3-239.706-48.41a617.044 617.044 0 0 1-104.621-56.79c-32.598-22.01-63.246-47.3-91.098-75.16-27.852-27.87-53.148-58.5-75.168-91.11-22.234-32.92-41.344-68.12-56.781-104.6-32.129-75.97-48.414-156.62-48.414-239.73 0-83.11 16.285-163.751 48.414-239.688 15.437-36.524 34.547-71.711 56.781-104.633a619.535 619.535 0 0 1 75.168-91.09c27.852-27.859 58.5-53.149 91.098-75.16a616.306 616.306 0 0 1 104.621-56.797c75.949-32.113 156.596-48.402 239.706-48.402 83.1 0 163.76 16.289 239.71 48.402a616.016 616.016 0 0 1 104.61 56.797 618.552 618.552 0 0 1 91.1 75.16 618.346 618.346 0 0 1 75.16 91.09c22.25 32.922 41.35 68.109 56.79 104.633 32.13 75.937 48.41 156.578 48.41 239.688 0 83.11-16.28 163.76-48.41 239.73" style="fill:#fff;fill-opacity:1;fill-rule:nonzero;stroke:none" transform="matrix(.13333 0 0 -.13333 0 307.013)"/><g clip-path="url(#a)" transform="matrix(.13333 0 0 -.13333 0 307.013)"><path d="M1542.48 1040.26h-5.56c-8.61 0-15.6 6.97-15.6 15.59 0 8.62 6.99 15.62 15.6 15.62h5.56c8.62 0 15.62-7 15.62-15.62s-7-15.59-15.62-15.59zm-36.78 53.8H899.059c-8.625 0-15.618 7-15.618 15.62 0 8.61 6.993 15.62 15.618 15.62H1505.7c8.63 0 15.62-7.01 15.62-15.62 0-8.62-6.99-15.62-15.62-15.62zm-84.08-53.8H694.254c-8.617 0-15.606 6.97-15.606 15.59 0 8.62 6.989 15.62 15.606 15.62h727.366c8.63 0 15.62-7 15.62-15.62s-6.99-15.59-15.62-15.59zm-168.03-145.881c0-8.629-6.98-15.617-15.61-15.617h-44.48c-8.63 0-15.62 6.988-15.62 15.617 0 8.621 6.99 15.609 15.62 15.609h44.48c8.63 0 15.61-6.988 15.61-15.609zm-32.67-69.098h-19.14c-8.43 0-15.28 6.828-15.28 15.27 0 8.437 6.85 15.269 15.28 15.269h19.14c8.44 0 15.28-6.832 15.28-15.269 0-8.442-6.84-15.27-15.28-15.27zm-38.27-54.172h-19.14c-8.43 0-15.28 6.84-15.28 15.282 0 8.449 6.85 15.289 15.28 15.289h19.14c8.44 0 15.29-6.84 15.29-15.289 0-8.442-6.85-15.282-15.29-15.282zm-.87-54.371h-6.38c-8.92 0-16.15 7.242-16.15 16.16 0 8.93 7.23 16.161 16.15 16.161h6.38c8.92 0 16.16-7.231 16.16-16.161 0-8.918-7.24-16.16-16.16-16.16zm-57.4 231.383c0 8.617 6.98 15.609 15.61 15.609h42.32c8.63 0 15.63-6.992 15.63-15.609 0-8.633-7-15.621-15.63-15.621h-42.32c-8.63 0-15.61 6.988-15.61 15.621zm-43.16 53.899c0 8.63 6.99 15.62 15.61 15.62h43.08c8.62 0 15.61-6.99 15.61-15.62 0-8.61-6.99-15.61-15.61-15.61h-43.08c-8.62 0-15.61 7-15.61 15.61zm-22.49-69.52h-5.89c-8.62 0-15.6 6.988-15.6 15.621 0 8.617 6.98 15.609 15.6 15.609h5.89c8.62 0 15.62-6.992 15.62-15.609 0-8.633-7-15.621-15.62-15.621zm0-53.738h-5.06c-8.62 0-15.61 6.988-15.61 15.617 0 8.621 6.99 15.609 15.61 15.609h5.06c8.62 0 15.62-6.988 15.62-15.609 0-8.629-7-15.617-15.62-15.617zM940.773 986.41H695.496c-8.625 0-15.613 7-15.613 15.61 0 8.63 6.988 15.62 15.613 15.62h245.277c8.622 0 15.614-6.99 15.614-15.62 0-8.61-6.992-15.61-15.614-15.61zm-76.703-53.738H696.16c-8.621 0-15.609 6.988-15.609 15.609 0 8.629 6.988 15.617 15.609 15.617h167.91c8.625 0 15.614-6.988 15.614-15.617 0-8.621-6.989-15.609-15.614-15.609zm-1.242-53.91H740.473c-8.618 0-15.606 6.988-15.606 15.617 0 8.621 6.988 15.609 15.606 15.609h122.355c8.621 0 15.61-6.988 15.61-15.609 0-8.629-6.989-15.617-15.61-15.617zm-116.883-53.481h-5.797c-8.437 0-15.281 6.828-15.281 15.27 0 8.437 6.844 15.269 15.281 15.269h5.797c8.446 0 15.285-6.832 15.285-15.269 0-8.442-6.839-15.27-15.285-15.27zM734.098 1125.3h45.156c8.621 0 15.605-7.01 15.605-15.62 0-8.62-6.984-15.62-15.605-15.62h-45.156c-8.618 0-15.618 7-15.618 15.62 0 8.61 7 15.62 15.618 15.62zm53.011 269.12h22.786c8.625 0 15.613-6.99 15.613-15.62 0-8.61-6.988-15.6-15.613-15.6h-22.786c-8.617 0-15.605 6.99-15.605 15.6 0 8.63 6.988 15.62 15.605 15.62zm47.555 53.83h8.035c8.621 0 15.617-6.98 15.617-15.62 0-8.62-6.996-15.6-15.617-15.6h-8.035c-8.625 0-15.617 6.98-15.617 15.6 0 8.64 6.992 15.62 15.617 15.62zm38.277-53.83H974.73c8.715 0 15.79-6.99 15.79-15.62 0-8.61-7.075-15.6-15.79-15.6H872.941c-8.722 0-15.789 6.99-15.789 15.6 0 8.63 7.067 15.62 15.789 15.62zm82.036 38.21c0-8.62-6.989-15.6-15.614-15.6h-28.91c-8.617 0-15.613 6.98-15.613 15.6 0 8.64 6.996 15.62 15.613 15.62h28.91c8.625 0 15.614-6.98 15.614-15.62zm-49.493 69.44h57.739c8.617 0 15.617-6.98 15.617-15.59 0-8.64-7-15.62-15.617-15.62h-57.739c-8.621 0-15.617 6.98-15.617 15.62 0 8.61 6.996 15.59 15.617 15.59zm14.168 53.84h18.141c8.617 0 15.613-6.99 15.613-15.61s-6.996-15.62-15.613-15.62h-18.141c-8.632 0-15.613 7-15.613 15.62s6.981 15.61 15.613 15.61zm39.016-246.53H821.91c-8.629 0-15.617 6.98-15.617 15.6 0 8.64 6.988 15.62 15.617 15.62h136.758c8.617 0 15.613-6.98 15.613-15.62 0-8.62-6.996-15.6-15.613-15.6zm341.352-345.65h84.08c8.62 0 15.62-6.992 15.62-15.609 0-8.633-7-15.621-15.62-15.621h-84.08c-8.62 0-15.61 6.988-15.61 15.621 0 8.617 6.99 15.609 15.61 15.609zm85.41-84.968h-47.47c-8.62 0-15.61 6.988-15.61 15.617 0 8.621 6.99 15.609 15.61 15.609h47.47c8.62 0 15.61-6.988 15.61-15.609 0-8.629-6.99-15.617-15.61-15.617zm37.15-38.211c0-8.442-6.85-15.27-15.28-15.27h-8.86c-8.45 0-15.3 6.828-15.3 15.27 0 8.437 6.85 15.269 15.3 15.269h8.86c8.43 0 15.28-6.832 15.28-15.269zm120.14 15.269h10.86c8.45 0 15.29-6.832 15.29-15.269 0-8.442-6.84-15.27-15.29-15.27h-10.86c-8.43 0-15.28 6.828-15.28 15.27 0 8.437 6.85 15.269 15.28 15.269zm-447.63 538.6h7.8c8.61 0 15.6-6.99 15.6-15.62 0-8.61-6.99-15.6-15.6-15.6h-7.8c-8.63 0-15.61 6.99-15.61 15.6 0 8.63 6.98 15.62 15.61 15.62zm6.79 107.65h160.54c8.62 0 15.61-6.98 15.61-15.59 0-8.64-6.99-15.62-15.61-15.62h-160.54c-8.61 0-15.61 6.98-15.61 15.62 0 8.61 7 15.59 15.61 15.59zm0 53.84h117.54c8.63 0 15.63-6.99 15.63-15.61s-7-15.62-15.63-15.62h-117.54c-8.61 0-15.61 7-15.61 15.62s7 15.61 15.61 15.61zm76.88 53.81h82.74c8.64 0 15.62-6.97 15.62-15.59 0-8.63-6.98-15.62-15.62-15.62h-82.74c-8.63 0-15.62 6.99-15.62 15.62 0 8.62 6.99 15.59 15.62 15.59zm0 53.83h82.74c8.64 0 15.62-6.98 15.62-15.6 0-8.64-6.98-15.61-15.62-15.61h-82.74c-8.63 0-15.62 6.97-15.62 15.61 0 8.62 6.99 15.6 15.62 15.6zm43.16-246.52h-41.34c-8.63 0-15.61 6.98-15.61 15.6 0 8.64 6.98 15.62 15.61 15.62h41.34c8.62 0 15.61-6.98 15.61-15.62 0-8.62-6.99-15.6-15.61-15.6zm-1.5-53.83h-38.85c-8.61 0-15.61 6.99-15.61 15.6 0 8.63 7 15.62 15.61 15.62h38.85c8.63 0 15.61-6.99 15.61-15.62 0-8.61-6.98-15.6-15.61-15.6zm424.36-307.35c0 8.62 6.99 15.62 15.61 15.62h51.42c1.05 7.49 1.97 15.03 2.73 22.59h-134.83c-8.62 0-15.61 7-15.61 15.62 0 8.61 6.99 15.62 15.61 15.62h137.09c.34 7.5.53 15.03.57 22.58H899.059c-8.625 0-15.618 7.01-15.618 15.62 0 8.63 6.993 15.62 15.618 15.62H1716.72c-.37 7.57-.88 15.11-1.53 22.6H857.305c-8.617 0-15.606 6.99-15.606 15.61s6.989 15.62 15.606 15.62h854.235c-1.09 7.58-2.34 15.12-3.74 22.61h-689.47c-8.62 0-15.6 6.98-15.6 15.59 0 8.64 6.98 15.62 15.6 15.62h682.74c-1.86 7.61-3.88 15.13-6.05 22.61H1057.65c-8.63 0-15.62 6.98-15.62 15.6 0 8.64 6.99 15.62 15.62 15.62h627.31a541.77 541.77 0 0 1-8.57 22.6H1340.94c-8.63 0-15.62 6.99-15.62 15.6 0 8.63 6.99 15.62 15.62 15.62H1662.66c-3.64 7.64-7.43 15.18-11.39 22.61H1340.94c-8.63 0-15.62 6.98-15.62 15.6 0 8.64 6.99 15.62 15.62 15.62h292.39c-4.73 7.66-9.63 15.19-14.7 22.61H1419.8c-8.62 0-15.61 7-15.61 15.62 0 8.61 6.99 15.59 15.61 15.59h175.83a551.202 551.202 0 0 1-18.83 22.61h-278.27c-8.63 0-15.61 7-15.61 15.62s6.98 15.61 15.61 15.61h248.69c-7.93 7.77-16.11 15.3-24.5 22.6h-181.78c-8.63 0-15.62 6.99-15.62 15.62 0 8.62 6.99 15.59 15.62 15.59h142.54a566.916 566.916 0 0 1-33.61 22.62h-108.93c-8.63 0-15.62 6.99-15.62 15.61s6.99 15.6 15.62 15.6h51.58a557.109 557.109 0 0 1-55.35 22.61H1229.7c-8.64 0-15.62 7-15.62 15.62 0 4.59 1.99 8.7 5.15 11.57a574.554 574.554 0 0 1-67.92 4.04c-124.1 0-238.865-39.93-332.158-107.67h16.918c8.625 0 15.614-6.97 15.614-15.59 0-8.63-6.989-15.62-15.614-15.62h-56.172c-119.277-103.79-194.671-256.7-194.671-427.22 0-312.622 253.441-566.079 566.083-566.079 166.32 0 315.88 71.73 419.45 185.937-8.23.43-14.77 7.223-14.77 15.571 0 8.621 6.98 15.621 15.6 15.621h25.48c18.81 24 35.71 49.539 50.51 76.422h-146.23c-8.62 0-15.62 6.988-15.62 15.617 0 8.621 7 15.609 15.62 15.609h162.18a575.829 575.829 0 0 1 10.02 22.512H1462.26c-8.63 0-15.62 6.988-15.62 15.621 0 8.617 6.99 15.609 15.62 15.609h223.32a582 582 0 0 1 7.42 22.68H1258.82c-8.63 0-15.63 7-15.63 15.61 0 8.63 7 15.62 15.63 15.62H1701.52c1.81 7.47 3.46 15.01 4.97 22.62h-46.1c-8.62 0-15.61 6.97-15.61 15.59" style="fill:url(#b);fill-opacity:1;fill-rule:nonzero;stroke:none"/></g><path d="m1662.36 1637.71 75.38 262.61c2.89 9.5 3.9 18.95-8.1 28.45l-10.37 7.76c-12.32 9.19-21.18 5.79-29.59.2l-228.56-148.75 48.29-26.97 164.97 107.09-25.71-90.36-21.71 16.75-43.63-28.33 50.4-38.67-14.49-50.71 43.12-39.07M717.094 1754.7c-13.942-11.16-30.903-17.24-46.231-15.36-18.672 2.09-30.383 9.71-48.363 31.68l-90.887 111.71-40.453-32.62 99.594-122.31c21.101-25.72 44.742-39.39 72.199-41.87 31.492-2.9 59.426 6.48 87.051 28.69 27.367 22.66 42.012 48.08 45.754 78.99 2.972 27.9-5.403 53.81-26.125 79.45l-99.738 122.42-40.5-32.89 91.23-111.89c17.875-21.81 23.027-35.09 21.238-53.72-1.261-15.33-10.48-30.72-24.769-42.28M1374.08 2043.29l93.77-24.64 12.32 47.37-96.72 25.48c-44.74 11.62-86.36.79-100.94-54.75l-42.87-163.52c-3.01-11.45 3.2-20.7 14.12-23.76l31.78-8.11 27.35 105.78 116.55-30.69 12.29 46.78-116.57 30.54 6.34 24.36c6.91 27.32 18.1 31.21 42.58 25.16M1053.47 2119.25l-160.755-32.71c-11.188-2.29-17.973-10.89-15.508-23.09l33.984-165.49c11.207-56.6 52.469-69.37 97.809-59.96l97.77 20.05-9.76 47.92-95.08-19.2c-24.157-4.97-35.477-.31-40.739 27.19l-5.234 24.6 118.093 24.28-9.39 47.14-118.222-23.76-12.18 58.58 129.292 26.51-10.08 47.94" style="fill:#fff;fill-opacity:1;fill-rule:nonzero;stroke:none" transform="matrix(.13333 0 0 -.13333 0 307.013)"/><path d="M1151.3 2302.6c-78.05 0-156.073-7.86-231.921-23.39-73.969-15.14-146.723-37.72-216.25-67.12-68.234-28.86-134.047-64.58-195.606-106.18-60.937-41.17-118.246-88.44-170.316-140.53-52.074-52.06-99.352-109.37-140.527-170.31-41.578-61.55-77.301-127.35-106.168-195.59-29.403-69.53-51.985-142.29-67.121-216.25C7.867 1307.39 0 1229.35 0 1151.31c0-78.07 7.867-156.091 23.39-231.931 15.137-73.969 37.72-146.731 67.122-216.238 28.867-68.25 64.59-134.063 106.168-195.61 41.175-60.941 88.453-118.25 140.527-170.312 52.07-52.078 109.379-99.379 170.316-140.528 61.559-41.601 127.372-77.312 195.606-106.18 69.527-29.39 142.281-51.972 216.25-67.12C995.227 7.859 1073.25 0 1151.3 0c78.05 0 156.07 7.86 231.91 23.39a1148.237 1148.237 0 0 1 216.26 67.122c68.23 28.867 134.05 64.578 195.6 106.179 60.95 41.149 118.25 88.45 170.32 140.528 52.07 52.062 99.36 109.371 140.53 170.312 41.58 61.547 77.3 127.36 106.17 195.61 29.39 69.507 51.99 142.269 67.12 216.238 15.52 75.84 23.39 153.861 23.39 231.931 0 78.04-7.87 156.08-23.39 231.92-15.13 73.96-37.73 146.72-67.12 216.25-28.87 68.24-64.59 134.04-106.17 195.59-41.17 60.94-88.46 118.25-140.53 170.31-52.07 52.09-109.37 99.36-170.32 140.53-61.55 41.6-127.37 77.32-195.6 106.18a1146.926 1146.926 0 0 1-216.26 67.12c-75.84 15.53-153.86 23.39-231.91 23.39zm0-99.4c580.95 0 1051.89-470.95 1051.89-1051.89 0-580.958-470.94-1051.9-1051.89-1051.9-580.948 0-1051.898 470.942-1051.898 1051.9 0 580.94 470.95 1051.89 1051.898 1051.89" style="fill:#b7b7b8;fill-opacity:1;fill-rule:nonzero;stroke:none" transform="matrix(.13333 0 0 -.13333 0 307.013)"/></svg>